<svg width="84" height="30" viewBox="0 0 84 30" fill="none" xmlns="http://www.w3.org/2000/svg">
<path d="M1.50644 13V0.295057H7.00587C8.14326 0.295057 9.12336 0.482606 9.94616 0.857705C10.769 1.2207 11.4042 1.74705 11.8519 2.43675C12.2996 3.12644 12.5234 3.94924 12.5234 4.90514C12.5234 5.84893 12.2996 6.66568 11.8519 7.35538C11.4042 8.04507 10.769 8.57747 9.94616 8.95257C9.12336 9.31557 8.14326 9.49707 7.00587 9.49707H3.13994L4.44673 8.17212V13H1.50644ZM4.44673 8.49882L3.13994 7.10128H6.84252C7.75002 7.10128 8.42761 6.90768 8.87531 6.52048C9.32301 6.13328 9.54686 5.59483 9.54686 4.90514C9.54686 4.20334 9.32301 3.65884 8.87531 3.27164C8.42761 2.88445 7.75002 2.69085 6.84252 2.69085H3.13994L4.44673 1.2933V8.49882ZM14.6226 13V0.295057H20.122C21.2594 0.295057 22.2395 0.482606 23.0623 0.857705C23.8851 1.2207 24.5204 1.74705 24.968 2.43675C25.4157 3.12644 25.6396 3.94924 25.6396 4.90514C25.6396 5.84893 25.4157 6.66568 24.968 7.35538C24.5204 8.03297 23.8851 8.55327 23.0623 8.91627C22.2395 9.27927 21.2594 9.46077 20.122 9.46077H16.2561L17.5629 8.17212V13H14.6226ZM22.6993 13L19.5231 8.38992H22.663L25.8755 13H22.6993ZM17.5629 8.49882L16.2561 7.11943H19.9587C20.8662 7.11943 21.5438 6.92583 21.9915 6.53863C22.4392 6.13933 22.663 5.59483 22.663 4.90514C22.663 4.20334 22.4392 3.65884 21.9915 3.27164C21.5438 2.88445 20.8662 2.69085 19.9587 2.69085H16.2561L17.5629 1.2933V8.49882ZM34.1401 13.2178C33.1358 13.2178 32.2041 13.0544 31.3451 12.7278C30.4981 12.4011 29.76 11.9413 29.1308 11.3484C28.5137 10.7555 28.0297 10.0597 27.6788 9.26112C27.34 8.46252 27.1706 7.59132 27.1706 6.64753C27.1706 5.70373 27.34 4.83254 27.6788 4.03394C28.0297 3.23534 28.5197 2.5396 29.1489 1.9467C29.7781 1.3538 30.5162 0.894004 31.3632 0.567305C32.2102 0.240607 33.1298 0.0772584 34.122 0.0772584C35.1263 0.0772584 36.0459 0.240607 36.8808 0.567305C37.7278 0.894004 38.4598 1.3538 39.0769 1.9467C39.7061 2.5396 40.1962 3.23534 40.5471 4.03394C40.898 4.82044 41.0734 5.69163 41.0734 6.64753C41.0734 7.59132 40.898 8.46857 40.5471 9.27927C40.1962 10.0779 39.7061 10.7736 39.0769 11.3665C38.4598 11.9473 37.7278 12.4011 36.8808 12.7278C36.0459 13.0544 35.1323 13.2178 34.1401 13.2178ZM34.122 10.7131C34.6907 10.7131 35.211 10.6163 35.6829 10.4227C36.1669 10.2291 36.5904 9.95081 36.9534 9.58782C37.3164 9.22482 37.5947 8.79527 37.7883 8.29917C37.994 7.80307 38.0968 7.25253 38.0968 6.64753C38.0968 6.04253 37.994 5.49198 37.7883 4.99589C37.5947 4.49979 37.3164 4.07024 36.9534 3.70724C36.6025 3.34424 36.185 3.06594 35.701 2.87235C35.217 2.67875 34.6907 2.58195 34.122 2.58195C33.5533 2.58195 33.0269 2.67875 32.5429 2.87235C32.071 3.06594 31.6536 3.34424 31.2906 3.70724C30.9276 4.07024 30.6433 4.49979 30.4376 4.99589C30.244 5.49198 30.1472 6.04253 30.1472 6.64753C30.1472 7.24043 30.244 7.79097 30.4376 8.29917C30.6433 8.79527 30.9216 9.22482 31.2725 9.58782C31.6354 9.95081 32.0589 10.2291 32.5429 10.4227C33.0269 10.6163 33.5533 10.7131 34.122 10.7131ZM47.4576 13.2178C46.4412 13.2178 45.4672 13.0847 44.5355 12.8185C43.6038 12.5402 42.8536 12.1833 42.2849 11.7477L43.2832 9.53337C43.8277 9.92056 44.469 10.2412 45.207 10.4953C45.9572 10.7373 46.7135 10.8583 47.4758 10.8583C48.0566 10.8583 48.5224 10.8039 48.8733 10.695C49.2363 10.574 49.5025 10.4106 49.6719 10.2049C49.8413 9.99921 49.926 9.76326 49.926 9.49707C49.926 9.15827 49.7929 8.89207 49.5267 8.69847C49.2605 8.49277 48.9096 8.32942 48.474 8.20842C48.0384 8.07532 47.5544 7.95432 47.022 7.84542C46.5017 7.72442 45.9754 7.57922 45.443 7.40982C44.9227 7.24043 44.4448 7.02263 44.0092 6.75643C43.5736 6.49023 43.2166 6.13933 42.9383 5.70373C42.6721 5.26813 42.539 4.71154 42.539 4.03394C42.539 3.30794 42.7326 2.6485 43.1198 2.0556C43.5191 1.4506 44.112 0.972654 44.8985 0.621755C45.6971 0.258757 46.6953 0.0772584 47.8932 0.0772584C48.6918 0.0772584 49.4783 0.174058 50.2527 0.367657C51.0271 0.549156 51.7108 0.827454 52.3037 1.20255L51.3962 3.43499C50.8033 3.09619 50.2104 2.84815 49.6175 2.69085C49.0246 2.52145 48.4438 2.43675 47.8751 2.43675C47.3064 2.43675 46.8405 2.5033 46.4775 2.6364C46.1145 2.7695 45.8544 2.94495 45.6971 3.16274C45.5398 3.36844 45.4611 3.61044 45.4611 3.88874C45.4611 4.21544 45.5942 4.48164 45.8604 4.68734C46.1266 4.88094 46.4775 5.03824 46.9131 5.15924C47.3487 5.28023 47.8267 5.40123 48.347 5.52223C48.8794 5.64323 49.4057 5.78238 49.926 5.93968C50.4584 6.09698 50.9424 6.30873 51.378 6.57493C51.8136 6.84113 52.1645 7.19203 52.4307 7.62762C52.709 8.06322 52.8482 8.61377 52.8482 9.27927C52.8482 9.99316 52.6485 10.6466 52.2492 11.2395C51.8499 11.8324 51.251 12.3103 50.4524 12.6733C49.6659 13.0363 48.6676 13.2178 47.4576 13.2178ZM57.3118 13V2.69085H53.2462V0.295057H64.3176V2.69085H60.2521V13H57.3118ZM71.8934 13.2178C70.8891 13.2178 69.9574 13.0544 69.0983 12.7278C68.2513 12.4011 67.5132 11.9413 66.884 11.3484C66.2669 10.7555 65.7829 10.0597 65.432 9.26112C65.0932 8.46252 64.9238 7.59132 64.9238 6.64753C64.9238 5.70373 65.0932 4.83254 65.432 4.03394C65.7829 3.23534 66.273 2.5396 66.9022 1.9467C67.5314 1.3538 68.2695 0.894004 69.1165 0.567305C69.9634 0.240607 70.883 0.0772584 71.8752 0.0772584C72.8795 0.0772584 73.7991 0.240607 74.634 0.567305C75.481 0.894004 76.2131 1.3538 76.8302 1.9467C77.4594 2.5396 77.9494 3.23534 78.3003 4.03394C78.6512 4.82044 78.8267 5.69163 78.8267 6.64753C78.8267 7.59132 78.6512 8.46857 78.3003 9.27927C77.9494 10.0779 77.4594 10.7736 76.8302 11.3665C76.2131 11.9473 75.481 12.4011 74.634 12.7278C73.7991 13.0544 72.8856 13.2178 71.8934 13.2178ZM71.8752 10.7131C72.4439 10.7131 72.9642 10.6163 73.4361 10.4227C73.9201 10.2291 74.3436 9.95081 74.7066 9.58782C75.0696 9.22482 75.3479 8.79527 75.5415 8.29917C75.7472 7.80307 75.8501 7.25253 75.8501 6.64753C75.8501 6.04253 75.7472 5.49198 75.5415 4.99589C75.3479 4.49979 75.0696 4.07024 74.7066 3.70724C74.3557 3.34424 73.9383 3.06594 73.4543 2.87235C72.9703 2.67875 72.4439 2.58195 71.8752 2.58195C71.3065 2.58195 70.7802 2.67875 70.2962 2.87235C69.8243 3.06594 69.4068 3.34424 69.0439 3.70724C68.6809 4.07024 68.3965 4.49979 68.1908 4.99589C67.9972 5.49198 67.9004 6.04253 67.9004 6.64753C67.9004 7.24043 67.9972 7.79097 68.1908 8.29917C68.3965 8.79527 68.6748 9.22482 69.0257 9.58782C69.3887 9.95081 69.8122 10.2291 70.2962 10.4227C70.7802 10.6163 71.3065 10.7131 71.8752 10.7131ZM7.64112 29.1452C6.66102 29.1452 5.75957 28.9879 4.93678 28.6733C4.11398 28.3466 3.40008 27.8929 2.79509 27.3121C2.19009 26.7192 1.71819 26.0295 1.37939 25.243C1.0406 24.4565 0.871196 23.5913 0.871196 22.6475C0.871196 21.7037 1.0406 20.8386 1.37939 20.0521C1.71819 19.2656 2.19009 18.5819 2.79509 18.0011C3.41218 17.4083 4.13213 16.9545 4.95493 16.6399C5.77772 16.3132 6.68522 16.1499 7.67742 16.1499C8.68171 16.1499 9.60131 16.3132 10.4362 16.6399C11.2711 16.9666 11.9789 17.4567 12.5597 18.11L11.4344 19.2353C10.9142 18.7271 10.3455 18.3581 9.72836 18.1282C9.12336 17.8862 8.46391 17.7652 7.75002 17.7652C7.02402 17.7652 6.34642 17.8862 5.71722 18.1282C5.10013 18.3702 4.56168 18.709 4.10188 19.1446C3.65418 19.5802 3.30329 20.1005 3.04919 20.7055C2.80719 21.2984 2.68619 21.9457 2.68619 22.6475C2.68619 23.3372 2.80719 23.9846 3.04919 24.5896C3.30329 25.1825 3.65418 25.7028 4.10188 26.1505C4.56168 26.5861 5.10013 26.9249 5.71722 27.1669C6.33432 27.4089 7.00587 27.5299 7.73187 27.5299C8.40946 27.5299 9.05681 27.427 9.67391 27.2213C10.3031 27.0035 10.8839 26.6466 11.4163 26.1505L12.4508 27.5299C11.8216 28.0623 11.0835 28.4676 10.2366 28.7459C9.40166 29.0121 8.53651 29.1452 7.64112 29.1452ZM10.7085 27.2939V22.5749H12.4508V27.5299L10.7085 27.2939ZM15.9258 29V16.2951H20.8808C21.994 16.2951 22.9438 16.4705 23.7303 16.8214C24.5168 17.1723 25.1218 17.6805 25.5453 18.346C25.9688 19.0115 26.1805 19.804 26.1805 20.7236C26.1805 21.6432 25.9688 22.4358 25.5453 23.1013C25.1218 23.7547 24.5168 24.2568 23.7303 24.6077C22.9438 24.9586 21.994 25.1341 20.8808 25.1341H16.9241L17.7408 24.2992V29H15.9258ZM24.42 29L21.1893 24.3899H23.1314L26.3983 29H24.42ZM17.7408 24.4807L16.9241 23.5913H20.8263C21.9879 23.5913 22.8652 23.3433 23.4581 22.8472C24.0631 22.339 24.3656 21.6311 24.3656 20.7236C24.3656 19.8161 24.0631 19.1143 23.4581 18.6182C22.8652 18.1221 21.9879 17.8741 20.8263 17.8741H16.9241L17.7408 16.9666V24.4807ZM27.189 29L32.9425 16.2951H34.7394L40.511 29H38.6053L33.4689 17.3115H34.1949L29.0584 29H27.189ZM29.6392 25.8238L30.1293 24.3718H37.2804L37.8067 25.8238H29.6392ZM44.0398 22.3027H50.5919V23.8636H44.0398V22.3027ZM44.2213 29H42.4063V16.2951H51.3724V17.8741H44.2213V29ZM53.9272 29V16.2951H55.7422V29H53.9272ZM61.1431 25.9327L61.0524 23.7184L68.2579 16.2951H70.327L64.7549 22.1756L63.7385 23.3009L61.1431 25.9327ZM59.5459 29V16.2951H61.3609V29H59.5459ZM68.5483 29L63.3392 22.9379L64.5553 21.5948L70.6718 29H68.5483ZM70.1533 29L75.9068 16.2951H77.7036L83.4753 29H81.5696L76.4331 17.3115H77.1591L72.0227 29H70.1533ZM72.6035 25.8238L73.0935 24.3718H80.2446L80.771 25.8238H72.6035Z" fill="white"/>
</svg>
