<svg width="24" height="24" viewBox="0 0 24 24" fill="none" xmlns="http://www.w3.org/2000/svg">
<path d="M16.5 21.75C16.5 21.9489 16.421 22.1396 16.2803 22.2803C16.1397 22.421 15.9489 22.5 15.75 22.5H8.24999C8.05108 22.5 7.86031 22.421 7.71966 22.2803C7.57901 22.1397 7.49999 21.9489 7.49999 21.75C7.49999 21.5511 7.57901 21.3603 7.71966 21.2196C7.86031 21.079 8.05108 21 8.24999 21H15.75C15.9489 21 16.1397 21.079 16.2803 21.2196C16.421 21.3603 16.5 21.5511 16.5 21.75ZM20.25 9.74997C20.2532 11.0003 19.9707 12.2347 19.4241 13.3592C18.8775 14.4837 18.0812 15.4684 17.096 16.2382C16.9121 16.3792 16.7628 16.5603 16.6595 16.7678C16.5562 16.9752 16.5017 17.2035 16.5 17.4353V18C16.4995 18.3977 16.3414 18.7789 16.0601 19.0601C15.7789 19.3413 15.3977 19.4995 15 19.5H8.99999C8.60231 19.4995 8.22104 19.3413 7.93983 19.0601C7.65863 18.7789 7.50045 18.3977 7.49999 18V17.4345C7.49968 17.2053 7.44689 16.9791 7.34565 16.7734C7.24441 16.5677 7.09741 16.3879 6.91593 16.2477C5.93363 15.4828 5.13816 14.5045 4.5897 13.3868C4.04123 12.2692 3.75413 11.0414 3.75013 9.79639C3.72545 5.32807 7.33725 1.60737 11.8015 1.50226C12.9013 1.47582 13.9952 1.66959 15.019 2.07219C16.0428 2.47479 16.9758 3.07808 17.763 3.84656C18.5502 4.61505 19.1757 5.53321 19.6028 6.54703C20.0299 7.56086 20.25 8.64986 20.25 9.74997V9.74997ZM15.5303 9.96961C15.3896 9.829 15.1989 9.75002 15 9.75002C14.8011 9.75002 14.6103 9.829 14.4697 9.96961L12 12.4393L9.53031 9.96961C9.38965 9.82896 9.19888 9.74995 8.99996 9.74996C8.80104 9.74997 8.61028 9.82899 8.46963 9.96965C8.32898 10.1103 8.24996 10.3011 8.24997 10.5C8.24998 10.6989 8.32901 10.8897 8.46967 11.0303L11.25 13.8107V17.25C11.25 17.4489 11.329 17.6397 11.4697 17.7803C11.6103 17.921 11.8011 18 12 18C12.1989 18 12.3897 17.921 12.5303 17.7803C12.671 17.6397 12.75 17.4489 12.75 17.25V13.8107L15.5303 11.0303C15.6 10.9607 15.6552 10.878 15.6929 10.787C15.7306 10.696 15.75 10.5985 15.75 10.5C15.75 10.4015 15.7306 10.3039 15.6929 10.2129C15.6552 10.1219 15.6 10.0393 15.5303 9.96961Z" fill="white"/>
</svg>
